<?xml version="1.0" standalone="no"?>
<svg viewBox="0 0 200 200" xmlns="http://www.w3.org/2000/svg">
  <path fill="#FF0066" d="M28.5,-43.7C39.6,-43,53,-40.7,64,-33.1C74.9,-25.6,83.4,-12.8,85.9,1.5C88.4,15.7,85,31.4,74.4,39.5C63.8,47.6,45.9,48.1,32.3,55.1C18.7,62,9.4,75.3,-2.5,79.7C-14.4,84.1,-28.9,79.6,-37.8,69.9C-46.7,60.3,-50,45.5,-51.7,33C-53.5,20.5,-53.6,10.3,-56.2,-1.5C-58.8,-13.3,-63.8,-26.5,-62.1,-39C-60.3,-51.5,-51.8,-63.2,-40.3,-63.7C-28.8,-64.1,-14.4,-53.4,-2.9,-48.5C8.7,-43.5,17.4,-44.4,28.5,-43.7Z" transform="translate(100 100)" />
</svg>
