<?xml version="1.0" standalone="no"?>
<svg viewBox="0 0 200 200" xmlns="http://www.w3.org/2000/svg">
  <path fill="#FF0066" d="M15.5,-30.6C26,-20.7,44.8,-28.7,48.2,-26.5C51.6,-24.4,39.7,-12.2,33.8,-3.4C27.8,5.4,27.9,10.7,28.4,19.6C28.9,28.5,29.9,41,25.2,51.6C20.6,62.2,10.3,71,-0.5,71.9C-11.3,72.8,-22.5,65.7,-36.1,60.2C-49.6,54.7,-65.4,50.8,-65.1,41C-64.9,31.2,-48.5,15.6,-37.9,6.1C-27.3,-3.4,-22.4,-6.7,-18.2,-8.8C-14,-10.8,-10.5,-11.4,-7.6,-25.8C-4.7,-40.2,-2.3,-68.3,0.1,-68.4C2.4,-68.5,4.9,-40.6,15.5,-30.6Z" transform="translate(100 100)" />
</svg>
