<?xml version="1.0" standalone="no"?>
<svg viewBox="0 0 200 200" xmlns="http://www.w3.org/2000/svg">
  <path fill="#26303b" d="M23.6,-37.6C29.4,-37.5,32.2,-28.8,38.6,-21.2C44.9,-13.5,54.7,-6.7,57.2,1.4C59.7,9.6,54.8,19.2,51.1,31.3C47.3,43.5,44.6,58.1,36.3,57.3C28,56.4,14,40.2,-0.2,40.5C-14.3,40.8,-28.6,57.6,-34.1,56.7C-39.6,55.9,-36.4,37.5,-42.9,25.1C-49.4,12.7,-65.7,6.4,-71.8,-3.5C-77.9,-13.4,-73.7,-26.8,-67.7,-40C-61.6,-53.2,-53.7,-66.2,-42.1,-63C-30.5,-59.9,-15.2,-40.5,-3.2,-35C8.9,-29.5,17.7,-37.8,23.6,-37.6Z" transform="translate(100 100)" />
</svg>
