<?xml version="1.0" standalone="no"?><svg xmlns="http://www.w3.org/2000/svg" viewBox="0 0 1440 320"><path fill="#0099ff" fill-opacity="1" d="M0,160L21.8,149.3C43.6,139,87,117,131,138.7C174.5,160,218,224,262,256C305.5,288,349,288,393,282.7C436.4,277,480,267,524,224C567.3,181,611,107,655,90.7C698.2,75,742,117,785,144C829.1,171,873,181,916,165.3C960,149,1004,107,1047,117.3C1090.9,128,1135,192,1178,213.3C1221.8,235,1265,213,1309,197.3C1352.7,181,1396,171,1418,165.3L1440,160L1440,320L1418.2,320C1396.4,320,1353,320,1309,320C1265.5,320,1222,320,1178,320C1134.5,320,1091,320,1047,320C1003.6,320,960,320,916,320C872.7,320,829,320,785,320C741.8,320,698,320,655,320C610.9,320,567,320,524,320C480,320,436,320,393,320C349.1,320,305,320,262,320C218.2,320,175,320,131,320C87.3,320,44,320,22,320L0,320Z"></path></svg>